<?xml version="1.0" encoding="UTF-8" standalone="no"?>
<!DOCTYPE svg PUBLIC "-//W3C//DTD SVG 1.1//EN" "http://www.w3.org/Graphics/SVG/1.1/DTD/svg11.dtd">
<svg width="100%" height="100%" viewBox="0 0 227 134" version="1.1" xmlns="http://www.w3.org/2000/svg" xmlns:xlink="http://www.w3.org/1999/xlink" xml:space="preserve" xmlns:serif="http://www.serif.com/" style="fill-rule:evenodd;clip-rule:evenodd;stroke-linejoin:round;stroke-miterlimit:2;">
    <g transform="matrix(1,0,0,1,1.57,124.359)">
        <path d="M0,8.737L0,0L75.494,0.004L82.382,5.969L89.591,0.004L225.124,0.004L225.124,8.737L0,8.737Z" style="fill:rgb(200,16,46);fill-rule:nonzero;"/>
    </g>
    <g transform="matrix(1,0,0,1,188.779,32.5269)">
        <path d="M0,62.038L0,25.469C0,18.996 -3.282,14.322 -9.759,11.578C-11.729,11.117 -13.121,10.926 -14.204,10.926C-19.94,10.926 -24.359,13.865 -27.34,19.667C-28.106,21.63 -28.468,23.978 -28.468,26.749L-28.388,62.038L-39.161,62.038L-39.245,24.741C-39.245,18.062 -42.82,10.926 -52.865,10.926C-64.846,10.926 -67.542,21.245 -67.542,24.859L-67.542,62.038L-78.314,62.038L-78.257,25.74C-78.257,9.481 -69.173,0.157 -53.334,0.157C-46.145,0.157 -39.835,3.02 -34.579,8.662L-33.759,9.542L-32.951,8.65C-27.748,2.913 -21.294,0 -13.769,0C10.495,0 10.773,23.311 10.773,24.302L10.773,62.038L0,62.038Z" style="fill:rgb(51,63,72);fill-rule:nonzero;"/>
    </g>
    <g transform="matrix(1,0,0,1,-23.9739,-60.3498)">
        <rect x="239.738" y="118.559" width="10.914" height="36.356" style="fill:rgb(51,63,72);"/>
    </g>
    <g transform="matrix(1,0,0,1,-23.9739,-130.023)">
        <rect x="239.757" y="164.613" width="10.914" height="13.921" style="fill:rgb(51,63,72);"/>
    </g>
    <g transform="matrix(1,0,0,1,89.6403,92.032)">
        <path d="M0,-59.326L0,-66.406C0,-68.582 0.492,-70.986 1.47,-73.559C3.405,-78.593 7.939,-81.177 14.955,-81.242L14.955,-92.032C11.283,-92.01 7.936,-91.54 5.065,-90.655C2.565,-89.719 0.164,-88.384 -1.981,-86.758C-7.825,-81.235 -10.79,-74.387 -10.79,-66.406L-10.79,-59.326L-12.835,-59.326L-12.835,-59.331L-33.801,-59.331C-29.732,-55.564 -27.476,-50.465 -26.732,-48.549L-22.905,-48.549L-22.905,-48.543L-10.79,-48.543L-10.79,28.225L-5.607,32.706L0,28.202L0,-48.543L13.897,-48.543C14.642,-50.459 16.897,-55.558 20.966,-59.326L0,-59.326Z" style="fill:rgb(51,63,72);fill-rule:nonzero;"/>
    </g>
    <g transform="matrix(1,0,0,1,27.735,83.2959)">
        <path d="M0,-40.043L2.521,-40.043C10.807,-40.043 17.692,-34.001 19.046,-26.095L-16.525,-26.095C-15.171,-34.001 -8.286,-40.043 0,-40.043M2.521,-50.993L0,-50.993C-15.293,-50.993 -27.735,-38.552 -27.735,-23.259L-27.735,-16.785C-27.735,-1.492 -15.293,10.95 0,10.95L2.521,10.95C13.325,10.95 22.7,4.736 27.276,-4.303L13.702,-4.303C10.73,-1.637 6.818,-0.001 2.521,-0.001L0,-0.001C-8.701,-0.001 -15.874,-6.658 -16.701,-15.145L30.206,-15.181C30.236,-15.712 30.256,-16.246 30.256,-16.785L30.256,-23.259C30.256,-38.552 17.813,-50.993 2.521,-50.993" style="fill:rgb(200,16,46);fill-rule:nonzero;"/>
    </g>
</svg>
